<svg width="16" height="16" viewBox="0 0 16 16" fill="none" xmlns="http://www.w3.org/2000/svg">
<path d="M13.0328 7.33143C12.7295 6.6487 12.2885 6.03593 11.7375 5.53143L11.2828 5.11424C11.2674 5.10046 11.2488 5.09069 11.2287 5.08577C11.2086 5.08085 11.1876 5.08094 11.1675 5.08603C11.1475 5.09112 11.129 5.10106 11.1137 5.11497C11.0984 5.12887 11.0867 5.14633 11.0797 5.1658L10.8766 5.74861C10.75 6.11424 10.5172 6.48768 10.1875 6.85486C10.1656 6.8783 10.1406 6.88455 10.1234 6.88611C10.1063 6.88768 10.0797 6.88455 10.0562 6.86268C10.0344 6.84393 10.0234 6.8158 10.025 6.78768C10.0828 5.84705 9.80156 4.78611 9.18594 3.63143C8.67656 2.67205 7.96875 1.92361 7.08437 1.40174L6.43906 1.02205C6.35469 0.972052 6.24688 1.03768 6.25156 1.13611L6.28594 1.88611C6.30937 2.39861 6.25 2.85174 6.10938 3.2283C5.9375 3.68924 5.69062 4.11736 5.375 4.50174C5.15535 4.76887 4.9064 5.01049 4.63281 5.22205C3.97391 5.72856 3.43815 6.37757 3.06562 7.12049C2.69402 7.86988 2.50045 8.69496 2.5 9.53143C2.5 10.2689 2.64531 10.983 2.93281 11.6564C3.21042 12.3048 3.61103 12.8933 4.1125 13.3892C4.61875 13.8892 5.20625 14.283 5.86094 14.5564C6.53906 14.8408 7.25781 14.9846 8 14.9846C8.74219 14.9846 9.46094 14.8408 10.1391 14.558C10.7921 14.2862 11.386 13.8897 11.8875 13.3908C12.3938 12.8908 12.7906 12.3064 13.0672 11.658C13.3543 10.9864 13.5015 10.2634 13.5 9.53299C13.5 8.77049 13.3438 8.02986 13.0328 7.33143Z" fill="#616161"/>
</svg>
