<svg width="15" height="13" viewBox="0 0 15 13" fill="none" xmlns="http://www.w3.org/2000/svg">
<path d="M7.5 2.75C7.5 2.75 7.5 2.75 6.90889 2C6.22444 1.13 5.21333 0.5 4 0.5C2.06333 0.5 0.5 2.0075 0.5 3.875C0.5 4.5725 0.717778 5.2175 1.09111 5.75C1.72111 6.6575 7.5 12.5 7.5 12.5M7.5 2.75C7.5 2.75 7.5 2.75 8.09111 2C8.77556 1.13 9.78667 0.5 11 0.5C12.9367 0.5 14.5 2.0075 14.5 3.875C14.5 4.5725 14.2822 5.2175 13.9089 5.75C13.2789 6.6575 7.5 12.5 7.5 12.5" stroke="black" stroke-linecap="round" stroke-linejoin="round"/>
</svg>
