<svg width="20" height="20" viewBox="0 0 20 20" fill="none" xmlns="http://www.w3.org/2000/svg">
<path fill-rule="evenodd" clip-rule="evenodd" d="M15 8.5H11.187L13.46 3.197C13.4926 3.12091 13.5058 3.03792 13.4985 2.95547C13.4911 2.87301 13.4634 2.79368 13.4178 2.72459C13.3722 2.6555 13.3101 2.59881 13.2372 2.55961C13.1643 2.52041 13.0828 2.49993 13 2.5H8C7.90208 2.49991 7.80629 2.52858 7.72452 2.58245C7.64274 2.63631 7.57858 2.713 7.54 2.803L4.54 9.803C4.50739 9.87909 4.49417 9.96208 4.50155 10.0445C4.50892 10.127 4.53665 10.2063 4.58225 10.2754C4.62785 10.3445 4.68989 10.4012 4.7628 10.4404C4.83571 10.4796 4.91722 10.5001 5 10.5H7.474L4.536 17.814C4.336 18.311 4.953 18.732 5.343 18.364L10.367 13.621L15.325 9.38C15.4027 9.31357 15.4581 9.22493 15.4839 9.12601C15.5097 9.02709 15.5045 8.92266 15.4691 8.82678C15.4337 8.73089 15.3697 8.64816 15.2858 8.58974C15.202 8.53131 15.1022 8.49999 15 8.5ZM10.429 9.5H13.646L9.698 12.878L6.313 16.073L8.678 10.186C8.70841 10.1101 8.71975 10.028 8.71104 9.94672C8.70233 9.86546 8.67383 9.78757 8.62805 9.71987C8.58226 9.65217 8.52057 9.59673 8.44839 9.5584C8.37621 9.52007 8.29573 9.50002 8.214 9.5H5.758L8.33 3.5H12.242L9.969 8.803C9.93639 8.87909 9.92317 8.96208 9.93054 9.04453C9.93792 9.12699 9.96565 9.20632 10.0112 9.27541C10.0568 9.3445 10.1189 9.40119 10.1918 9.44039C10.2647 9.47959 10.3462 9.50007 10.429 9.5Z" fill="black"/>
</svg>
